PathFileType	4	(X/Y/Z)	Kaydara	
DataRate	CameraRate	NumFrames	NumMarkers	Units	OrigDataRate	OrigDataStartFrame	OrigNumFrames	
120.00	120.00	4	72	mm	120.00	66	261	
Frame#	Time	Hips			RightUpLeg			RightLeg			RightFoot			RightFoot_End			LeftUpLeg			LeftLeg			LeftFoot			LeftFoot_End			Spine			Spine1			Spine2			Spine3			Neck			Head			Head_End			RightShoulder			RightArm			RightForeArm			RightHand			RightHandThumb1			RightHandThumb2			RightHandThumb3			RightHandThumb3_End			RightInHandIndex			RightHandIndex1			RightHandIndex2			RightHandIndex3			RightHandIndex3_End			RightInHandMiddle			RightHandMiddle1			RightHandMiddle2			RightHandMiddle3			RightHandMiddle3_End			RightInHandRing			RightHandRing1			RightHandRing2			RightHandRing3			RightHandRing3_End			RightInHandPinky			RightHandPinky1			RightHandPinky2			RightHandPinky3			RightHandPinky3_End			LeftShoulder			LeftArm			LeftForeArm			LeftHand			LeftHandThumb1			LeftHandThumb2			LeftHandThumb3			LeftHandThumb3_End			LeftInHandIndex			LeftHandIndex1			LeftHandIndex2			LeftHandIndex3			LeftHandIndex3_End			LeftInHandMiddle			LeftHandMiddle1			LeftHandMiddle2			LeftHandMiddle3			LeftHandMiddle3_End			LeftInHandRing			LeftHandRing1			LeftHandRing2			LeftHandRing3			LeftHandRing3_End			LeftInHandPinky			LeftHandPinky1			LeftHandPinky2			LeftHandPinky3			LeftHandPinky3_End			
		X1	Y1	Z1	X2	Y2	Z2	X3	Y3	Z3	X4	Y4	Z4	X5	Y5	Z5	X6	Y6	Z6	X7	Y7	Z7	X8	Y8	Z8	X9	Y9	Z9	X10	Y10	Z10	X11	Y11	Z11	X12	Y12	Z12	X13	Y13	Z13	X14	Y14	Z14	X15	Y15	Z15	X16	Y16	Z16	X17	Y17	Z17	X18	Y18	Z18	X19	Y19	Z19	X20	Y20	Z20	X21	Y21	Z21	X22	Y22	Z22	X23	Y23	Z23	X24	Y24	Z24	X25	Y25	Z25	X26	Y26	Z26	X27	Y27	Z27	X28	Y28	Z28	X29	Y29	Z29	X30	Y30	Z30	X31	Y31	Z31	X32	Y32	Z32	X33	Y33	Z33	X34	Y34	Z34	X35	Y35	Z35	X36	Y36	Z36	X37	Y37	Z37	X38	Y38	Z38	X39	Y39	Z39	X40	Y40	Z40	X41	Y41	Z41	X42	Y42	Z42	X43	Y43	Z43	X44	Y44	Z44	X45	Y45	Z45	X46	Y46	Z46	X47	Y47	Z47	X48	Y48	Z48	X49	Y49	Z49	X50	Y50	Z50	X51	Y51	Z51	X52	Y52	Z52	X53	Y53	Z53	X54	Y54	Z54	X55	Y55	Z55	X56	Y56	Z56	X57	Y57	Z57	X58	Y58	Z58	X59	Y59	Z59	X60	Y60	Z60	X61	Y61	Z61	X62	Y62	Z62	X63	Y63	Z63	X64	Y64	Z64	X65	Y65	Z65	X66	Y66	Z66	X67	Y67	Z67	X68	Y68	Z68	X69	Y69	Z69	X70	Y70	Z70	X71	Y71	Z71	X72	Y72	Z72	

66	0.542	4081.203	893.81699	129.612	4169.93605046811	901.5968358081356	89.7592999403816	4064.0422728168646	502.27844189793694	20.672833601474387	4036.239521393821	109.4313749586734	6.285073269898813	3919.8063297992517	40.65818907156946	144.4786223652129	4005.7737335804745	860.5207665850983	183.21732897357006	3902.000809791877	470.870280423646	296.1267145644607	3790.0866501490696	74.662051265068	454.5947251599613	3642.5723485227604	25.762743656127608	344.5815018311195	4018.5622956547804	1011.7887468417584	78.87567208912574	3958.9013280177833	1070.7318634384271	30.327368791669866	3892.988780257175	1125.5953996047738	-22.918180868784727	3825.2221393974114	1167.482387676549	-78.07646621897698	3751.3063409109095	1213.7631257361936	-134.04130019842742	3676.021280921608	1249.9990442435776	-178.00379948879726	3537.205642637079	1327.9071835135558	-189.0078740171361	3798.6626288579328	1211.5850801987697	-132.22575640943012	3879.357141614238	1250.21296262817	-207.5272020978014	3973.8550243197815	1035.937748513069	-286.100444595325	4139.30846188869	919.355289291026	-372.7738976621946	4143.809998969898	928.0628937388109	-394.79820090025606	4139.126045061664	923.9286915704115	-417.8759547219517	4137.811613140765	918.0210962955703	-432.83338129637673	4138.381837959036	910.5053536157429	-444.34980757206864	4152.927561760291	918.3930368920984	-392.72008490075524	4173.500395456561	904.009856659621	-419.53002954206863	4178.611441218556	891.9295117215937	-438.75167714450197	4173.553222459952	886.8654493452002	-449.83869229622337	4163.811273926522	884.3240187431801	-458.4332392594537	4157.0707574872995	910.5580781770143	-388.7840874778824	4179.380561971918	892.2918166702256	-412.80455596037353	4185.4261855928935	878.1200182188614	-433.1735911435701	4179.548407433556	871.5354740782535	-446.2590518332445	4168.9982144661335	868.5238045582581	-455.5217629729972	4159.583235773358	905.38808645787	-385.3114792788985	4182.080993079268	884.525170217569	-403.80166856611874	4187.7928114539645	871.1901694307935	-420.89863437534564	4182.358165710139	864.3169311203521	-433.1718209202766	4172.549644752793	861.2378807278429	-441.7158230786552	4161.014099146739	899.858922875244	-380.59289058605475	4182.907779037701	877.3047623948121	-394.6258754033244	4188.072905245155	865.1842870643577	-407.21129859992686	4184.394891442081	859.4732314655089	-415.6287918703871	4175.870753054219	856.3441653033352	-422.8897064301818	3752.9569603490518	1183.5987880351456	-99.16668711248641	3692.7348045812773	1090.7734253815458	-44.85115101751326	3895.604345507806	1002.2435624096728	-166.64565223866225	4097.152023723204	937.7226143841123	-278.6398084887751	4108.2371262921215	953.2011397519366	-295.5063242008803	4137.3047345713985	959.1678650981639	-295.31101159953175	4159.8139515051125	960.1157575117418	-294.242998766238	4180.517869475768	958.1621770629421	-292.55533664653194	4116.552298146572	943.2296703747194	-295.4352888904698	4158.189707167878	939.2912877355219	-310.18634851730445	4191.581561229038	935.9851687279037	-311.25098131456673	4209.688179930835	936.5376754774854	-306.4771763295851	4222.885438422509	938.7541140654948	-298.85935686187514	4121.477594934642	934.6164289223049	-291.949649454914	4164.752303262989	926.1163022791122	-304.45463071548124	4201.709802244241	921.3842388047974	-305.09709417757836	4223.80445642649	921.5112520888058	-299.0884832293415	4238.366024748222	923.6741292070105	-290.6320615887723	4123.873054661383	928.6156656968133	-289.20089201412594	4164.671656096989	915.7419212506721	-298.2858207782079	4197.347833182212	910.4817282734135	-298.29435130104474	4218.906221160298	910.0011178433447	-292.20570446032747	4232.714495743512	911.7489688599354	-284.11575188878186	4125.598939981552	921.9396745699424	-284.8943571807747	4164.023673476813	905.961237108349	-290.87969164464397	4190.735495241567	900.0334930784596	-289.98592175048856	4206.724364763167	898.8530594875647	-285.10918188776185	4219.108242015667	899.9237600979545	-277.69207917180717
67	0.55	4081.203	893.81699	129.612	4170.0922488203305	901.689211882005	89.93627876918865	4063.8439984825054	502.395337951544	21.212928732953284	4036.1710309292566	109.5232350641977	7.121038210661445	3919.7135198657147	40.82023818829304	145.3579412132307	4005.5898153206363	860.4175427215698	183.0499658009452	3901.6770741062446	470.807893378057	295.9598740987431	3789.5111801577636	74.8659956860501	455.07873142631763	3642.1373450713904	26.336696903138808	344.66117584567877	4018.6583074797854	1011.8264522883519	78.83927325661614	3959.0809823113786	1070.8227813013245	30.24647043604535	3893.263523080715	1125.7531580311747	-23.056510478415618	3825.604603162099	1167.728367992527	-78.2940623948601	3751.7913247803976	1214.0984405236784	-134.3325228422343	3676.5418408884834	1250.3785833870384	-178.3135374628435	3537.744262611701	1328.320835001444	-189.2839943290787	3799.1753573872315	1212.0181978447815	-132.41987854903138	3880.248695662367	1251.2034179497234	-207.47351959210908	3975.5456618187513	1037.2123880737108	-286.9211970704681	4142.0912714675715	921.7832135517999	-374.6970159064539	4146.709659824778	930.7677949997097	-396.69855136363276	4142.138731246762	926.8454584263812	-419.97917892134126	4140.901690660557	921.0686844981378	-435.1011184453598	4141.535305011297	913.6476962746702	-446.7745667298517	4155.835267597204	921.0691361422842	-394.686423684183	4176.5851925183515	906.9784050208615	-421.71443795564284	4181.808508734642	895.070972768613	-441.16904645925456	4176.801401405696	890.0885406651437	-452.4096211475042	4167.089151993309	887.5972253995202	-461.1371572926182	4159.968189452652	913.1770638229183	-390.80988206102745	4182.445169831569	895.1651634206353	-415.0751858748296	4188.611358999472	881.1735242418833	-435.7056672700764	4182.7943115516955	874.6833738875234	-448.97986576160866	4172.276161545445	871.7245515729176	-458.38977939986887	4162.469028302191	907.9595173367636	-387.3730855818674	4185.106908549082	887.2840382539647	-406.1119421152973	4190.9215604467845	874.0969501145536	-423.44380548059445	4185.5442991349855	867.3099216301947	-435.90277361861644	4175.765339064757	864.2782672730358	-444.58694972313396	4163.880259118721	902.3650271158738	-382.6944112163185	4185.890875844542	879.943475226216	-396.97803869662795	4191.134222276514	867.9264026668814	-409.76143185900065	4187.496069299562	862.2709537431955	-418.3192108926038	4178.996969151686	859.1796856013997	-425.70704516989707	3753.3486198251585	1183.7761214143336	-99.51374501635765	3692.8007210331507	1090.5746943812487	-45.6093057548922	3896.14253903654	1002.7854114625381	-167.735636581454	4098.29578730309	938.7104596487609	-280.26442568796307	4109.59702969746	954.4290861779647	-296.87074517038747	4138.753944590832	960.4318625805795	-296.3965268673564	4161.314871239233	961.388692136036	-295.1687074220686	4182.052927812794	959.4287302441506	-293.3772700496037	4117.907636504191	944.4411810402103	-296.90876413660345	4159.77239774854	940.7002051847631	-311.5152415959191	4193.252035242028	937.4273175210856	-312.4283637424286	4211.365467291251	937.941172224206	-307.5156050595398	4224.536148718289	940.0856111464396	-299.7525823508082	4122.793157078899	935.7721407895204	-293.51936408414684	4166.2681242136405	927.4344069494393	-305.9353948062259	4203.3153390656025	922.7304723771881	-306.42563333679146	4225.4152989044915	922.8069511062093	-300.2556681383796	4239.946369867081	924.889150000462	-291.643424883858	4125.155405893271	929.7279094887191	-290.84300181293156	4166.106674382816	916.964867568872	-299.9131442634987	4198.854516117226	911.7206125549747	-299.8025210504664	4220.414553077519	911.1867011234693	-293.56541814455267	4234.192508829365	912.8565355041898	-285.33235748703055	4126.830977031235	922.9882922729298	-286.6184787331689	4165.367111315127	907.075555309427	-292.6431563969072	4192.125459606294	901.1466988642343	-291.67513355450166	4208.11027872447	899.9206748652881	-286.7003456037099	4220.464275261057	900.9184027847925	-279.1623640683662
68	0.558	4081.203	893.81699	129.612	4170.234421824447	901.7743448267598	90.09294116994197	4063.6352921203925	502.50697844619407	21.712294730321943	4036.126900537045	109.61592440939906	7.885702188332546	3919.6482386559132	40.97482668824866	146.16208202779933	4005.4219706507565	860.3224811039489	182.90268854707816	3901.38822399497	470.75820703662595	295.84421871458096	3788.939764472319	75.08504878389992	455.59232851725386	3641.721721631516	26.89058601388006	344.775146686215	4018.7480615775607	1011.8611522315693	78.80374152944047	3959.2574984080834	1070.9128896747334	30.165681219467565	3893.5399528215166	1125.9139976346876	-23.196053860571773	3825.995250532171	1167.9835372675059	-78.51514261292701	3752.2918310403275	1214.449508808891	-134.6304749884163	3677.083988592257	1250.7806230487902	-178.63436665831	3538.296984871342	1328.7430762333277	-189.5782733541849	3799.701110087892	1212.4559390729557	-132.62340581154024	3881.1631951410914	1252.2014710233464	-207.4333800637024	3977.25294948086	1038.502096315931	-287.788147757237	4144.892102287744	924.2110037229788	-376.6833901163222	4149.645038749489	933.4658102867076	-398.67120429470305	4145.193030434436	929.7446243987955	-422.16315837857553	4144.035993190613	924.0915576575782	-437.4552362474789	4144.733896894787	916.7596907290797	-449.2901727388361	4158.775958892744	923.7393843479282	-396.72509135302323	4179.715988555455	909.9318886379461	-423.98349930696776	4185.055306751787	898.1887788384535	-443.67893800643316	4180.098914801712	893.2818724910995	-455.0768328926877	4170.414204543922	890.8351045065591	-463.939707421749	4162.893839327654	915.7913615111185	-392.90683261165697	4185.548111220643	898.0254649803127	-417.42835819796085	4191.83826000133	884.2047921107929	-438.3286772481777	4186.081140082404	877.8017574130085	-451.7960566833402	4175.592511313697	874.8897319167842	-461.35569767992115	4165.379385240272	910.5273395248573	-389.5047126616492	4188.163419877777	890.0328109187345	-408.5014786489377	4194.083154100646	876.9858202976058	-426.07533580090467	4188.762125723549	870.2780861742713	-438.72425546292914	4179.010177124361	867.2881887155155	-447.55092475777576	4166.766026193932	904.8688559726066	-384.8642247873571	4188.896217236117	882.5748577436517	-399.40593743635407	4194.218451342761	870.6552663453289	-412.39260236889606	4190.618770981777	865.0505424501592	-421.0935248094751	4182.142135237274	861.9921706801274	-428.61022739004403	3753.753082563291	1183.9759659462547	-99.86230970435878	3692.8697210631854	1090.3735191146252	-46.43373719554445	3896.6789239951136	1003.3131643200314	-168.9135469257731	4099.450181991171	939.7093769844138	-282.0594485642769	4110.9659081192885	955.6545052093967	-298.4042462732895	4140.2157109323225	961.6791597490502	-297.6648031542204	4162.830635472227	962.6359549615113	-296.2880036739276	4183.60456176565	960.662901626022	-294.4029286768093	4119.270417849647	945.6522717769064	-298.5547610496854	4161.359671913126	942.09389635517	-313.0294566340606	4194.9285281224975	938.8432250484749	-313.8058287990344	4213.051935557961	939.3116061137109	-308.7644536388484	4226.200188147025	941.378416843417	-300.8655670686454	4124.1158641132615	936.9303589414028	-295.26496789369594	4167.788138863928	928.7421594228072	-307.60635285623454	4204.926609802718	924.0547673186688	-307.9608833117485	4227.035677908866	924.072689177186	-301.6422321955567	4241.540784474465	926.068152353904	-292.88448179449483	4126.444727522675	930.8451149318371	-292.66300464443435	4167.545759600792	918.1834127359218	-301.7327788698989	4200.366586966989	912.9454599898094	-301.5177952207513	4221.931929654859	912.350755340618	-295.14466690231995	4235.683823410394	913.936993898006	-286.7782963910211	4128.070155544968	924.0450504458602	-288.5228135388683	4166.715008723512	908.1914157534248	-294.60133054542115	4193.5209210535395	902.2544939933072	-293.57145774229315	4209.504347240964	900.9777836261318	-288.50795837767515	4221.832228224483	901.8978091075477	-280.8579326295491
69	0.567	4081.203	893.81699	129.612	4170.364844639434	901.8519844760376	90.23373351977169	4063.420360997603	502.6118947164872	22.179715558078392	4036.1065133120637	109.70753844337321	8.593683066382027	3919.6103944491397	41.120667676496026	146.906444779005	4005.2670130209763	860.2354182264023	182.7711103235442	3901.130809855454	470.7210114943202	295.77594882816396	3788.3776429453314	75.31718607854746	456.1334240626705	3641.323659739037	27.420162524157327	344.93070677334464	4018.8351379220258	1011.8944872966786	78.7687567400349	3959.434124237919	1071.0040574353222	30.08543172931247	3893.820363095339	1126.07965078155	-23.335304127832405	3826.394659039058	1168.2489231083425	-78.73666542243348	3752.8066393273634	1214.8165826224754	-134.93041089475108	3677.6450945318875	1251.2045510148832	-178.95997621870418	3538.8622527573793	1329.175124967818	-189.8849106053387	3800.2390054840566	1212.9004887567562	-132.8315019290261	3882.095253793599	1253.211472091784	-207.4030578750866	3978.9730216291487	1039.809328971211	-288.68987798578013	4147.701563608776	926.6407721495093	-378.7160437260767	4152.605961417247	936.1619112952359	-400.6965051573318	4148.27913609538	932.6348360013452	-424.40745696992417	4147.205006506637	927.1007796493146	-439.87503634682395	4147.968374045719	919.8542947989916	-451.8759499005109	4161.739399773195	926.4084249389047	-398.81705670048564	4182.8819072735005	912.8786496037113	-426.31670376028075	4188.341150816222	901.2942855057897	-446.2605715424828	4183.435567601071	896.4587436618099	-457.81968058970267	4173.7768913418	894.0526104223966	-466.8205563158324	4165.837622264906	918.4051210720835	-395.05676266182866	4188.678758146405	900.8802117449347	-419.8449163098038	4195.096492714384	887.2245239585337	-441.0232878694495	4189.3990985634555	880.9036345018797	-454.6885091071785	4178.938191148359	878.0341490160566	-464.40077313964105	4168.304338415365	913.0952551847	-391.68881947194393	4191.240154742833	892.7777818950531	-410.9523923176913	4197.26744667947	879.8657895458755	-428.7753083226052	4192.002092692098	873.2326159667505	-441.6186245721733	4182.275290975875	870.2805016499874	-450.5904858516338	4169.6616353698855	907.3735250872364	-387.08561394134404	4191.913771202042	885.2040264788199	-401.89302459773234	4197.315781463283	873.3780279019553	-415.0884312285553	4193.7536372094055	867.820670278668	-423.93564878167723	4185.297509670369	864.7917290700635	-431.5835582170379	3754.1700452210016	1184.197166922953	-100.20893356778832	3692.944386883577	1090.1745527297123	-47.307922786679356	3897.2217730022385	1003.8469845680348	-170.15806998216792	4100.629256161382	940.7715188557703	-283.9725254076459	4112.35470622434	956.932904535344	-300.05940202614295	4141.699526095213	962.9723319152278	-299.06887422608645	4164.370124838741	963.9250853158625	-297.5534889166114	4185.181483739937	961.9364047439614	-295.58390985365196	4120.652651687111	946.9186047762616	-300.3238870797293	4162.962262413421	943.5348608801563	-314.68013043478976	4196.621324825992	940.3017737781792	-315.3333981778544	4214.757606851597	940.7221547421656	-310.1728080606847	4227.887371772357	942.7094843425863	-302.14645888692684	4125.458877570274	938.1466992659284	-297.13493326634216	4169.3248863512845	930.1018190741163	-309.41533913675147	4206.555821676418	925.4263217250603	-309.64917635750516	4228.677558716305	925.3828337103123	-303.1932418475492	4243.161043846315	927.2896287347012	-294.29920576253846	4127.755025427631	932.0226758498623	-294.6078613005812	4169.0030865322	919.4586682416415	-303.689831245191	4201.898092452866	914.2233926954631	-303.3836805872499	4223.472249820985	913.5653690972724	-296.8855821452599	4237.202200300861	915.0663018896877	-288.3945991477367	4129.331508165362	925.1650059879466	-290.5524839874273	4168.083178865548	909.3688640832822	-296.69653715367025	4194.937840889165	903.4216544156371	-295.6154907890191	4210.922545062904	902.0927443371334	-290.4713979287083	4223.228023094349	902.9337420901447	-282.7170633562899
